<svg width="160" height="81" viewBox="0 0 160 81" fill="none" xmlns="http://www.w3.org/2000/svg">
<path d="M92.8063 54.6617C117.539 54.6617 140.206 58.4729 157.814 64.8062C140.803 55.8723 116.096 50.2508 88.5986 50.2508C47.3206 50.2508 12.3302 62.9188 0.225708 80.4435C16.1202 65.2434 51.5945 54.6617 92.8063 54.6617Z" fill="#348D70"/>
<path d="M1.52344 29.0541H4.64835C9.06607 29.0327 10.9839 30.9076 10.9839 35.4968C10.9839 40.0859 9.06607 41.9608 4.64835 41.9394H1.52344V29.0541ZM0.0592041 43.1894H5.38047C10.0142 43.0822 12.4481 40.5394 12.4481 35.4968C12.4481 30.4541 10.0142 27.9113 5.38047 27.8042H0.0592041V43.1894ZM27.3164 37.9967C27.4235 34.8718 26.0021 31.7469 22.4255 31.7469C18.8917 31.7469 17.4042 34.7004 17.4042 37.6306C17.4042 40.7984 18.8917 43.5126 22.4255 43.5126C25.2272 43.5126 26.6914 42.0465 27.2735 39.527H25.9164C25.4843 41.2073 24.4076 42.3697 22.4255 42.3697C19.8184 42.3697 18.7845 39.9788 18.7613 37.9967H27.3164ZM18.7613 36.8539C18.9774 34.8289 20.2059 32.8897 22.4255 32.8897C24.6236 32.8897 25.895 34.8075 25.9593 36.8539H18.7613ZM32.5734 43.1894H33.9305V27.8042H32.5734V43.1894ZM39.9642 43.1894H41.3213V27.8042H39.9642V43.1894ZM54.4441 38.8806C54.4655 41.0555 52.6352 42.3697 50.5657 42.3697C49.2943 42.3697 48.0872 41.5305 48.0872 40.1734C48.0872 37.9967 50.9532 38.0181 53.2584 37.6092C53.6263 37.5431 54.228 37.436 54.4013 37.1128H54.4441V38.8806ZM48.5622 35.4753C48.605 33.6647 49.855 32.8897 51.5353 32.8897C53.1299 32.8897 54.4441 33.3415 54.4441 35.1736C54.4441 36.4021 53.8191 36.5521 52.6995 36.6824C49.7693 37.0271 46.7301 37.1342 46.7301 40.2591C46.7301 42.5001 48.4104 43.5126 50.4585 43.5126C52.5906 43.5126 53.5602 42.6929 54.5084 41.2501H54.5513C54.5513 42.4144 54.7673 43.1894 56.1458 43.1894C56.5137 43.1894 56.728 43.1679 57.0297 43.1036V41.9608C56.9226 42.0037 56.7494 42.0465 56.5994 42.0465C56.0601 42.0465 55.8012 41.7465 55.8012 41.2287V35.3253C55.8012 32.3504 53.6691 31.7469 51.7085 31.7469C49.1657 31.7469 47.3336 32.8683 47.2051 35.4753H48.5622ZM73.0386 35.7985H78.0813C80.6455 35.7985 82.133 36.811 82.133 38.7717C82.133 41.2287 80.258 41.9608 78.0813 41.9394H73.0386V35.7985ZM71.5744 43.1894H78.0813C83.0812 43.1894 83.5972 40.2805 83.5972 38.8145C83.5972 36.811 82.3258 35.3253 80.3438 35.0664V35.0236C81.9383 34.6789 83.0151 33.1915 83.0151 31.5755C83.0151 28.7095 80.667 27.8042 78.0813 27.8042H71.5744V43.1894ZM73.0386 29.0541H78.0813C80.3652 29.0541 81.5508 30.0237 81.5508 31.9415C81.5508 33.3861 80.4295 34.5486 78.0813 34.5486H73.0386V29.0541ZM93.7898 31.7469C90.3845 31.7469 88.531 34.4414 88.531 37.6306C88.531 40.8198 90.3845 43.5126 93.7898 43.5126C97.1932 43.5126 99.0467 40.8198 99.0467 37.6306C99.0467 34.4414 97.1932 31.7469 93.7898 31.7469ZM93.7898 32.8897C96.3968 32.8897 97.6896 35.2593 97.6896 37.6306C97.6896 40.0002 96.3968 42.3697 93.7898 42.3697C91.1827 42.3697 89.8881 40.0002 89.8881 37.6306C89.8881 35.2593 91.1827 32.8897 93.7898 32.8897ZM104.455 43.1894H105.812V36.7039C105.855 34.5272 107.148 32.8897 109.303 32.8897C111.501 32.8897 112.126 34.3325 112.126 36.2503V43.1894H113.483V36.036C113.483 33.3861 112.535 31.7469 109.41 31.7469C107.837 31.7469 106.351 32.6522 105.855 33.9879H105.812V32.0701H104.455V43.1894ZM126.562 38.8806C126.583 41.0555 124.753 42.3697 122.683 42.3697C121.412 42.3697 120.205 41.5305 120.205 40.1734C120.205 37.9967 123.071 38.0181 125.376 37.6092C125.744 37.5431 126.346 37.436 126.519 37.1128H126.562V38.8806ZM120.68 35.4753C120.723 33.6647 121.973 32.8897 123.653 32.8897C125.248 32.8897 126.562 33.3415 126.562 35.1736C126.562 36.4021 125.937 36.5521 124.817 36.6824C121.887 37.0271 118.848 37.1342 118.848 40.2591C118.848 42.5001 120.528 43.5126 122.576 43.5126C124.708 43.5126 125.678 42.6929 126.626 41.2501H126.669C126.669 42.4144 126.885 43.1894 128.264 43.1894C128.632 43.1894 128.846 43.1679 129.148 43.1036V41.9608C129.04 42.0037 128.867 42.0465 128.717 42.0465C128.178 42.0465 127.919 41.7465 127.919 41.2287V35.3253C127.919 32.3504 125.787 31.7469 123.826 31.7469C121.284 31.7469 119.451 32.8683 119.323 35.4753H120.68Z" fill="#555555"/>
<path d="M130.444 72.2469L102.173 72.4031C102.173 72.4031 122.168 58.0384 126.072 54.6033C129.975 51.1683 140.749 39.3018 142.935 35.3984C144.989 31.7302 145.277 29.1528 148.556 30.0897C152.336 31.1698 159.505 37.0826 159.954 39.9264C160.422 42.893 157.218 43.3597 155.27 45.0789C152.615 47.421 131.38 71.3101 130.444 72.2469Z" fill="#348D70"/>
<path d="M0 0H14.5306V2.47856H2.94329V9.51146H13.1054V11.99H2.94329V22.1211H0V0Z" fill="#348D70"/>
<path d="M31.5465 22.0592C31.0921 22.3277 30.4621 22.4619 29.6566 22.4619C28.975 22.4619 28.4276 22.276 28.0145 21.9042C27.6221 21.5118 27.4259 20.8818 27.4259 20.0143C26.703 20.8818 25.8561 21.5118 24.8854 21.9042C23.9352 22.276 22.9025 22.4619 21.7872 22.4619C21.0642 22.4619 20.3723 22.3793 19.7114 22.2141C19.0711 22.0488 18.5134 21.7906 18.0383 21.4395C17.5633 21.0884 17.1812 20.634 16.892 20.0763C16.6235 19.498 16.4892 18.806 16.4892 18.0005C16.4892 17.0917 16.6441 16.3481 16.954 15.7698C17.2638 15.1915 17.6665 14.7268 18.1623 14.3756C18.6786 14.0038 19.257 13.725 19.8973 13.5391C20.5582 13.3532 21.2295 13.1983 21.9111 13.0744C22.634 12.9298 23.3156 12.8265 23.9559 12.7646C24.6168 12.6819 25.1952 12.5787 25.6909 12.4547C26.1866 12.3102 26.579 12.1139 26.8682 11.8661C27.1574 11.5976 27.302 11.2155 27.302 10.7198C27.302 10.1414 27.1884 9.6767 26.9612 9.32557C26.7546 8.97444 26.4758 8.70593 26.1246 8.52004C25.7942 8.33415 25.4121 8.21022 24.9783 8.14826C24.5652 8.08629 24.1521 8.05531 23.739 8.05531C22.6237 8.05531 21.6942 8.27218 20.9506 8.70593C20.2071 9.11902 19.8043 9.91423 19.7423 11.0915H17.1089C17.1502 10.1001 17.3567 9.26361 17.7285 8.582C18.1003 7.9004 18.596 7.35305 19.2156 6.93996C19.8353 6.50621 20.5375 6.19639 21.3224 6.0105C22.128 5.82461 22.9851 5.73166 23.8939 5.73166C24.6168 5.73166 25.3294 5.7833 26.0317 5.88657C26.7546 5.98984 27.4052 6.20672 27.9836 6.53719C28.5619 6.84701 29.0266 7.29109 29.3778 7.86942C29.7289 8.44775 29.9045 9.20164 29.9045 10.1311V18.3723C29.9045 18.9919 29.9354 19.4463 29.9974 19.7355C30.08 20.0247 30.3279 20.1693 30.741 20.1693C30.9682 20.1693 31.2367 20.1176 31.5465 20.0143V22.0592ZM27.271 13.8489C26.9405 14.0968 26.5068 14.2827 25.9697 14.4066C25.4327 14.5099 24.8647 14.6028 24.2657 14.6854C23.6874 14.7474 23.0987 14.83 22.4997 14.9333C21.9008 15.0159 21.3637 15.1605 20.8887 15.3671C20.4136 15.5736 20.0212 15.8731 19.7114 16.2655C19.4222 16.6373 19.2776 17.1537 19.2776 17.8146C19.2776 18.2484 19.3602 18.6202 19.5255 18.93C19.7114 19.2191 19.9386 19.4567 20.2071 19.6426C20.4962 19.8285 20.8267 19.9627 21.1985 20.0453C21.5703 20.1279 21.9627 20.1693 22.3758 20.1693C23.2433 20.1693 23.9869 20.0557 24.6065 19.8285C25.2262 19.5806 25.7322 19.2811 26.1246 18.93C26.5171 18.5582 26.8062 18.1658 26.9921 17.7527C27.178 17.3189 27.271 16.9161 27.271 16.5444V13.8489Z" fill="#348D70"/>
<path d="M33.9045 6.10345H36.3831V9.48048H36.4451C37.0854 8.17924 37.8702 7.2188 38.7997 6.59916C39.7291 5.97952 40.9065 5.69035 42.3316 5.73166V8.52004C41.2783 8.52004 40.3798 8.66462 39.6362 8.95379C38.8926 9.24295 38.2936 9.66637 37.8392 10.224C37.3848 10.7817 37.0544 11.4633 36.8478 12.2689C36.6413 13.0537 36.538 13.9625 36.538 14.9953V22.1211H33.9045V6.10345Z" fill="#348D70"/>
<path d="M44.3147 6.10345H46.7933V8.45807H46.8553C48.0532 6.64047 49.7779 5.73166 52.0293 5.73166C53.0207 5.73166 53.9192 5.93821 54.7247 6.3513C55.5302 6.76439 56.0982 7.46665 56.4287 8.45807C56.9657 7.59058 57.668 6.9193 58.5355 6.44425C59.4236 5.96919 60.3944 5.73166 61.4478 5.73166C62.2533 5.73166 62.9763 5.82461 63.6166 6.0105C64.2775 6.17574 64.8352 6.44425 65.2896 6.81603C65.7646 7.18781 66.1261 7.6732 66.374 8.27218C66.6425 8.85051 66.7767 9.55277 66.7767 10.379V22.1211H64.1432V11.6182C64.1432 11.1225 64.1019 10.6578 64.0193 10.224C63.9367 9.7903 63.7818 9.41852 63.5546 9.1087C63.3274 8.77822 63.0072 8.52004 62.5941 8.33415C62.2017 8.14826 61.6853 8.05531 61.045 8.05531C59.7438 8.05531 58.7214 8.42709 57.9778 9.17066C57.2342 9.91423 56.8625 10.9056 56.8625 12.1449V22.1211H54.229V11.6182C54.229 11.1019 54.1774 10.6268 54.0741 10.1931C53.9915 9.75932 53.8365 9.38753 53.6093 9.07771C53.3821 8.74724 53.0723 8.49938 52.6799 8.33415C52.3081 8.14826 51.8227 8.05531 51.2237 8.05531C50.4595 8.05531 49.7986 8.21022 49.2409 8.52004C48.7039 8.82986 48.2598 9.20164 47.9087 9.63539C47.5782 10.0691 47.3303 10.5235 47.1651 10.9986C47.0205 11.453 46.9482 11.8351 46.9482 12.1449V22.1211H44.3147V6.10345Z" fill="#348D70"/>
<path d="M84.9179 22.0592C84.4635 22.3277 83.8335 22.4619 83.028 22.4619C82.3464 22.4619 81.7991 22.276 81.386 21.9042C80.9935 21.5118 80.7973 20.8818 80.7973 20.0143C80.0744 20.8818 79.2275 21.5118 78.2568 21.9042C77.3067 22.276 76.2739 22.4619 75.1586 22.4619C74.4357 22.4619 73.7437 22.3793 73.0828 22.2141C72.4425 22.0488 71.8848 21.7906 71.4097 21.4395C70.9347 21.0884 70.5526 20.634 70.2634 20.0763C69.9949 19.498 69.8606 18.806 69.8606 18.0005C69.8606 17.0917 70.0155 16.3481 70.3254 15.7698C70.6352 15.1915 71.038 14.7268 71.5337 14.3756C72.05 14.0038 72.6284 13.725 73.2687 13.5391C73.9296 13.3532 74.6009 13.1983 75.2825 13.0744C76.0054 12.9298 76.687 12.8265 77.3273 12.7646C77.9883 12.6819 78.5666 12.5787 79.0623 12.4547C79.558 12.3102 79.9505 12.1139 80.2396 11.8661C80.5288 11.5976 80.6734 11.2155 80.6734 10.7198C80.6734 10.1414 80.5598 9.6767 80.3326 9.32557C80.126 8.97444 79.8472 8.70593 79.4961 8.52004C79.1656 8.33415 78.7835 8.21022 78.3497 8.14826C77.9366 8.08629 77.5235 8.05531 77.1104 8.05531C75.9951 8.05531 75.0656 8.27218 74.3221 8.70593C73.5785 9.11902 73.1757 9.91423 73.1138 11.0915H70.4803C70.5216 10.1001 70.7281 9.26361 71.0999 8.582C71.4717 7.9004 71.9674 7.35305 72.5871 6.93996C73.2067 6.50621 73.909 6.19639 74.6938 6.0105C75.4994 5.82461 76.3566 5.73166 77.2654 5.73166C77.9883 5.73166 78.7009 5.7833 79.4031 5.88657C80.126 5.98984 80.7766 6.20672 81.355 6.53719C81.9333 6.84701 82.398 7.29109 82.7492 7.86942C83.1003 8.44775 83.2759 9.20164 83.2759 10.1311V18.3723C83.2759 18.9919 83.3068 19.4463 83.3688 19.7355C83.4514 20.0247 83.6993 20.1693 84.1124 20.1693C84.3396 20.1693 84.6081 20.1176 84.9179 20.0143V22.0592ZM80.6424 13.8489C80.3119 14.0968 79.8782 14.2827 79.3411 14.4066C78.8041 14.5099 78.2361 14.6028 77.6371 14.6854C77.0588 14.7474 76.4701 14.83 75.8712 14.9333C75.2722 15.0159 74.7351 15.1605 74.2601 15.3671C73.785 15.5736 73.3926 15.8731 73.0828 16.2655C72.7936 16.6373 72.649 17.1537 72.649 17.8146C72.649 18.2484 72.7317 18.6202 72.8969 18.93C73.0828 19.2191 73.31 19.4567 73.5785 19.6426C73.8677 19.8285 74.1981 19.9627 74.5699 20.0453C74.9417 20.1279 75.3341 20.1693 75.7472 20.1693C76.6147 20.1693 77.3583 20.0557 77.9779 19.8285C78.5976 19.5806 79.1036 19.2811 79.4961 18.93C79.8885 18.5582 80.1777 18.1658 80.3636 17.7527C80.5494 17.3189 80.6424 16.9161 80.6424 16.5444V13.8489Z" fill="#348D70"/>
<path d="M98.2436 11.2465C98.037 10.2344 97.6033 9.4495 96.9423 8.89182C96.2814 8.33415 95.3932 8.05531 94.2779 8.05531C93.3278 8.05531 92.5326 8.23087 91.8923 8.582C91.252 8.93313 90.7356 9.39786 90.3432 9.97619C89.9714 10.5545 89.7029 11.2258 89.5376 11.99C89.3724 12.7336 89.2898 13.5081 89.2898 14.3137C89.2898 15.0572 89.3724 15.7801 89.5376 16.4824C89.7235 17.1847 90.0024 17.8146 90.3741 18.3723C90.7459 18.9093 91.2313 19.3431 91.8303 19.6735C92.4293 20.004 93.1419 20.1693 93.9681 20.1693C95.2693 20.1693 96.2814 19.8285 97.0043 19.1469C97.7479 18.4652 98.2023 17.5048 98.3675 16.2655H101.063C100.774 18.2484 100.03 19.7768 98.8322 20.8509C97.6549 21.9249 96.0439 22.4619 93.999 22.4619C92.7804 22.4619 91.696 22.2657 90.7459 21.8733C89.8165 21.4808 89.0316 20.9231 88.3913 20.2002C87.7717 19.4773 87.2966 18.6202 86.9661 17.6287C86.6563 16.6167 86.5014 15.5116 86.5014 14.3137C86.5014 13.1157 86.6563 12.0003 86.9661 10.9676C87.2759 9.91423 87.7407 9.00542 88.3603 8.2412C89.0006 7.45632 89.7958 6.84701 90.7459 6.41327C91.696 5.95886 92.8011 5.73166 94.061 5.73166C94.9698 5.73166 95.8167 5.84526 96.6015 6.07246C97.4071 6.27901 98.1093 6.60948 98.7083 7.06389C99.328 7.51829 99.834 8.09662 100.226 8.79888C100.619 9.48048 100.867 10.2963 100.97 11.2465H98.2436Z" fill="#348D70"/>
<path d="M106.798 3.22212H104.165V0H106.798V3.22212ZM104.165 6.10345H106.798V22.1211H104.165V6.10345Z" fill="#348D70"/>
<path d="M125.068 22.0592C124.613 22.3277 123.983 22.4619 123.178 22.4619C122.496 22.4619 121.949 22.276 121.536 21.9042C121.143 21.5118 120.947 20.8818 120.947 20.0143C120.224 20.8818 119.377 21.5118 118.406 21.9042C117.456 22.276 116.424 22.4619 115.308 22.4619C114.585 22.4619 113.893 22.3793 113.232 22.2141C112.592 22.0488 112.034 21.7906 111.559 21.4395C111.084 21.0884 110.702 20.634 110.413 20.0763C110.144 19.498 110.01 18.806 110.01 18.0005C110.01 17.0917 110.165 16.3481 110.475 15.7698C110.785 15.1915 111.188 14.7268 111.683 14.3756C112.2 14.0038 112.778 13.725 113.418 13.5391C114.079 13.3532 114.75 13.1983 115.432 13.0744C116.155 12.9298 116.837 12.8265 117.477 12.7646C118.138 12.6819 118.716 12.5787 119.212 12.4547C119.708 12.3102 120.1 12.1139 120.389 11.8661C120.678 11.5976 120.823 11.2155 120.823 10.7198C120.823 10.1414 120.709 9.6767 120.482 9.32557C120.276 8.97444 119.997 8.70593 119.646 8.52004C119.315 8.33415 118.933 8.21022 118.499 8.14826C118.086 8.08629 117.673 8.05531 117.26 8.05531C116.145 8.05531 115.215 8.27218 114.472 8.70593C113.728 9.11902 113.325 9.91423 113.263 11.0915H110.63C110.671 10.1001 110.878 9.26361 111.25 8.582C111.621 7.9004 112.117 7.35305 112.737 6.93996C113.356 6.50621 114.059 6.19639 114.843 6.0105C115.649 5.82461 116.506 5.73166 117.415 5.73166C118.138 5.73166 118.85 5.7833 119.553 5.88657C120.276 5.98984 120.926 6.20672 121.505 6.53719C122.083 6.84701 122.548 7.29109 122.899 7.86942C123.25 8.44775 123.425 9.20164 123.425 10.1311V18.3723C123.425 18.9919 123.456 19.4463 123.518 19.7355C123.601 20.0247 123.849 20.1693 124.262 20.1693C124.489 20.1693 124.758 20.1176 125.068 20.0143V22.0592ZM120.792 13.8489C120.462 14.0968 120.028 14.2827 119.491 14.4066C118.954 14.5099 118.386 14.6028 117.787 14.6854C117.208 14.7474 116.62 14.83 116.021 14.9333C115.422 15.0159 114.885 15.1605 114.41 15.3671C113.935 15.5736 113.542 15.8731 113.232 16.2655C112.943 16.6373 112.799 17.1537 112.799 17.8146C112.799 18.2484 112.881 18.6202 113.046 18.93C113.232 19.2191 113.46 19.4567 113.728 19.6426C114.017 19.8285 114.348 19.9627 114.719 20.0453C115.091 20.1279 115.484 20.1693 115.897 20.1693C116.764 20.1693 117.508 20.0557 118.128 19.8285C118.747 19.5806 119.253 19.2811 119.646 18.93C120.038 18.5582 120.327 18.1658 120.513 17.7527C120.699 17.3189 120.792 16.9161 120.792 16.5444V13.8489Z" fill="#348D70"/>
<path d="M150.665 24.2471H146.703V2.00028H150.665V24.2471Z" fill="#348D70"/>
<path d="M159.807 15.1052H137.561V11.1434H159.807V15.1052Z" fill="#348D70"/>
</svg>
